# xmcd CD Database Entry
#
# Track frame offsets:
# 150
# 5279
# 25827
# 51317
# 69511
# 87288
# 109444
# 130653
# 151538
# 170486
# 194252
# 212224
# 231930
# 251301
# 278171
# 311615
#
# Disc length: 4393 seconds
#
# Revision: 1
# Processed by: cddbd v1.4PL0 Copyright (c) Steve Scherf et al.
# Submitted via: tcd 2.0b
#
DISCID=d3112710
DTITLE=Outkast - Big Boi and Dre Present...
DYEAR=1900
DGENRE=
TTITLE0=Intro
TTITLE1=Funkin' Around
TTITLE2=Ain't No Thang
TTITLE3=So Fresh, So Clean
TTITLE4=Rosa Parks
TTITLE5=The Whole World
TTITLE6=Aquemini
TTITLE7=B.O.B.
TTITLE8=Southernplayalisticadillacmuzik
TTITLE9=Crumblin' Erb
TTITLE10=Ms. Jackson
TTITLE11=Player's Ball
TTITLE12=Elevators (Me and You)
TTITLE13=Spottieottiedopaliscious
TTITLE14=Git Up, Git Out
TTITLE15=Movin' Cool (The After Party)
EXTD=
EXTT0=
EXTT1=
EXTT2=
EXTT3=
EXTT4=
EXTT5=
EXTT6=
EXTT7=
EXTT8=
EXTT9=
EXTT10=
EXTT11=
EXTT12=
EXTT13=
EXTT14=
EXTT15=
PLAYORDER=
